<svg xmlns="http://www.w3.org/2000/svg" viewBox="0 0 64 64" width="64" height="64">
  <defs>
    <linearGradient id="grad" x1="0%" y1="0%" x2="100%" y2="100%">
      <stop offset="0%" style="stop-color:#3b82f6;stop-opacity:1" />
      <stop offset="100%" style="stop-color:#14b8a6;stop-opacity:1" />
    </linearGradient>
  </defs>
  
  <!-- AI Brain/Circuit symbol with gradient -->
  <g fill="none" stroke="url(#grad)" stroke-width="3" stroke-linecap="round" stroke-linejoin="round">
    <!-- Central node -->
    <circle cx="32" cy="32" r="4" fill="url(#grad)"/>
    
    <!-- Top connections -->
    <line x1="32" y1="28" x2="32" y2="18"/>
    <circle cx="32" cy="16" r="3" fill="url(#grad)"/>
    
    <!-- Top-right connections -->
    <line x1="34.8" y1="29.8" x2="42" y2="22"/>
    <circle cx="44" cy="20" r="3" fill="url(#grad)"/>
    
    <!-- Right connections -->
    <line x1="36" y1="32" x2="46" y2="32"/>
    <circle cx="48" cy="32" r="3" fill="url(#grad)"/>
    
    <!-- Bottom-right connections -->
    <line x1="34.8" y1="34.2" x2="42" y2="42"/>
    <circle cx="44" cy="44" r="3" fill="url(#grad)"/>
    
    <!-- Bottom connections -->
    <line x1="32" y1="36" x2="32" y2="46"/>
    <circle cx="32" cy="48" r="3" fill="url(#grad)"/>
    
    <!-- Bottom-left connections -->
    <line x1="29.2" y1="34.2" x2="22" y2="42"/>
    <circle cx="20" cy="44" r="3" fill="url(#grad)"/>
    
    <!-- Left connections -->
    <line x1="28" y1="32" x2="18" y2="32"/>
    <circle cx="16" cy="32" r="3" fill="url(#grad)"/>
    
    <!-- Top-left connections -->
    <line x1="29.2" y1="29.8" x2="22" y2="22"/>
    <circle cx="20" cy="20" r="3" fill="url(#grad)"/>
  </g>
</svg>